<?xml version="1.0" encoding="utf-8"?>
<!-- Generator: Adobe Illustrator 26.3.1, SVG Export Plug-In . SVG Version: 6.00 Build 0)  -->
<svg version="1.1" id="a" xmlns="http://www.w3.org/2000/svg" xmlns:xlink="http://www.w3.org/1999/xlink" x="0px" y="0px"
	 viewBox="0 0 73 72" style="enable-background:new 0 0 73 72;" xml:space="preserve">
<style type="text/css">
	.st0{fill:none;}
	.st1{fill:#0EA5E9;}
</style>
<g id="b">
	<ellipse class="st0" cx="36.5" cy="36" rx="36.5" ry="36"/>
	<path class="st1" d="M36.5,72C16.4,72,0,55.8,0,36S16.4,0,36.5,0S73,16.1,73,36S56.6,72,36.5,72z M36.5,3C18,3,3,17.8,3,36
		s15,33,33.5,33S70,54.2,70,36S55,3,36.5,3z"/>
</g>
<g id="c" transform="translate(36.5 17.976)">
	<path class="st1" d="M12.5,27.5c-0.2,0-0.5,0-0.7-0.2l-14.5-7.2V-0.5C-2.7-1.4-2-2-1.2-2s1.5,0.7,1.5,1.5v18.8l12.9,6.4
		c0.7,0.4,1,1.3,0.7,2C13.6,27.2,13.1,27.5,12.5,27.5L12.5,27.5z"/>
</g>
</svg>
