<?xml version="1.0" encoding="UTF-8"?><svg id="a" xmlns="http://www.w3.org/2000/svg" viewBox="0 0 73 72"><g id="b"><ellipse cx="36.5" cy="36" rx="36.5" ry="35.84" style="fill:none;"/><path d="M36.5,71.84C16.37,71.84,0,55.76,0,36S16.37,.16,36.5,.16s36.5,16.08,36.5,35.84-16.37,35.84-36.5,35.84Zm0-68.67C18.03,3.16,3,17.89,3,36s15.03,32.84,33.5,32.84,33.5-14.73,33.5-32.84S54.97,3.16,36.5,3.16Z" style="fill:#16a34a;"/></g><path d="M32.06,47.41c-.4,0-.78-.16-1.06-.44l-10.19-10.19c-.59-.59-.59-1.54,0-2.12s1.54-.59,2.12,0l9.13,9.13,17.97-17.97c.59-.59,1.54-.59,2.12,0,.59,.59,.59,1.54,0,2.12l-19.03,19.03c-.28,.28-.66,.44-1.06,.44Z" style="fill:#16a34a;"/></svg>