<?xml version="1.0" encoding="UTF-8"?><svg id="a" xmlns="http://www.w3.org/2000/svg" viewBox="0 0 81.57 72"><g id="b"><g id="c"><path d="M36.47,3.54c1.38-2.39,4.44-3.21,6.83-1.83,.76,.44,1.39,1.07,1.83,1.83l34.8,60.28c1.38,2.39,.56,5.45-1.83,6.83-.76,.44-1.62,.67-2.5,.67H6.01c-2.76,0-5-2.24-5-5,0-.88,.23-1.74,.67-2.5L36.47,3.54Z" style="fill:none;"/><path d="M40.8,4.04c-.35,0-1.21,.1-1.73,1L4.28,65.32c-.52,.9-.17,1.7,0,2,.17,.3,.69,1,1.73,1H75.6c1.04,0,1.56-.7,1.73-1,.17-.3,.52-1.1,0-2L42.54,5.04c-.52-.9-1.38-1-1.73-1m0-3c1.68,0,3.37,.83,4.33,2.5l34.8,60.28c1.92,3.33-.48,7.5-4.33,7.5H6.01c-3.85,0-6.25-4.17-4.33-7.5L36.47,3.54c.96-1.67,2.65-2.5,4.33-2.5Z" style="fill:#0ea5e9;"/></g><g><path d="M40.8,48.36c.83,0,1.5-.67,1.5-1.5V26.01c0-.83-.67-1.5-1.5-1.5s-1.5,.67-1.5,1.5v20.85c0,.83,.67,1.5,1.5,1.5Z" style="fill:#0ea5e9;"/><circle cx="40.8" cy="55.75" r="2.68" style="fill:#0ea5e9;"/></g></g></svg>