<?xml version="1.0" encoding="utf-8"?>
<!-- Generator: Adobe Illustrator 26.3.1, SVG Export Plug-In . SVG Version: 6.00 Build 0)  -->
<svg version="1.1" id="a" xmlns="http://www.w3.org/2000/svg" xmlns:xlink="http://www.w3.org/1999/xlink" x="0px" y="0px"
	 viewBox="0 0 83.1 72" style="enable-background:new 0 0 83.1 72;" xml:space="preserve">
<style type="text/css">
	.st0{fill:none;}
	.st1{fill:#FF6929;}
	.st2{fill:#F97316;}
</style>
<g id="b">
	<g id="c">
		<path class="st0" d="M37.2,3.7c1.4-2.4,4.4-3.2,6.8-1.8c0.8,0.4,1.4,1.1,1.8,1.8L80.7,64c1.4,2.4,0.6,5.4-1.8,6.8
			c-0.8,0.4-1.6,0.7-2.5,0.7H6.8c-2.8,0-5-2.2-5-5c0-0.9,0.2-1.7,0.7-2.5L37.2,3.7z"/>
		<path class="st1" d="M41.6,4.2c-0.3,0-1.2,0.1-1.7,1L5,65.5c-0.5,0.9-0.2,1.7,0,2s0.7,1,1.7,1h69.6c1,0,1.6-0.7,1.7-1
			c0.2-0.3,0.5-1.1,0-2L43.3,5.2C42.8,4.3,41.9,4.2,41.6,4.2 M41.6,1.2c1.7,0,3.4,0.8,4.3,2.5L80.7,64c1.9,3.3-0.5,7.5-4.3,7.5H6.8
			c-3.9,0-6.2-4.2-4.3-7.5L37.2,3.7C38.2,2,39.9,1.2,41.6,1.2z"/>
	</g>
	<g id="d" transform="translate(40.773 29.973)">
		<path class="st1" d="M0.8-5.4C0-5.4-0.7-4.7-0.7-3.9V17c0,0.8,0.7,1.5,1.5,1.5s1.5-0.7,1.5-1.5V-3.9C2.3-4.7,1.6-5.4,0.8-5.4z"/>
		<circle id="e" class="st2" cx="0.8" cy="25.9" r="2.7"/>
	</g>
</g>
</svg>
