<?xml version="1.0" encoding="UTF-8"?><svg id="b" xmlns="http://www.w3.org/2000/svg" viewBox="0 0 600.2 89.4"><g id="c"><path d="M4.1,10l-2.1,9.8L.6,29.7l-.6,10v10l.7,10,1.4,9.9,2.1,9.8,2.7,9.6,2.7-9.6,2-9.8,1.4-9.9,.7-10v-10l-.7-9.9-1.4-9.9-2-9.8L6.8,.4l-2.7,9.6Zm17.8,0l-2.1,9.8-1.4,9.9-.7,9.9v10l.7,10,1.4,9.9,2.1,9.8,2.7,9.6,2.7-9.6,2-9.8,1.4-9.9,.7-10v-9.9l-.7-9.9-1.4-9.9-2-9.8L24.6,.4l-2.7,9.6Zm17.6,0l-2,9.8-1.4,9.9-.7,9.9v10l.7,10,1.4,9.9,2,9.8,2.7,9.6,2.7-9.6,2.1-9.8,1.4-9.9,.7-10v-9.9l-.7-9.9-1.4-9.9-2.1-9.8L42.3,.4l-2.8,9.6Zm17.8,0l-2,9.8-1.4,9.9-.7,9.9v10l.7,10,1.4,9.9,2,9.8,2.7,9.6,2.7-9.6,2.1-9.8,1.4-9.9,.7-10v-9.9l-.7-9.9-1.4-9.9-2.1-9.8L60,.4l-2.7,9.6Zm17.8,0l-2.1,9.8-1.4,9.9-.7,9.9v10l.7,10,1.4,9.9,2.1,9.8,2.7,9.6,2.7-9.6,2.1-9.8,1.4-9.9,.7-10v-9.9l-.7-9.9-1.4-9.9-2.1-9.9L77.8,.4l-2.7,9.6ZM171.8,.4l-11.1,48.5L149.6,.4h-48.4V89.3h26.9V26.9l17.8,62.4h29.6l17.8-62.4v62.4h26.9V.4h-48.4Zm98.8,71.1l-2-.8-1.7-1.3-1.3-1.7-.8-2-.3-2.1V25.9l.3-2.1,.8-1.9,1.3-1.7,1.7-1.3,2-.8,2.1-.3,2.1,.3,2,.8,1.7,1.3,1.3,1.7,.8,1.9,.3,2.1V63.7l-.3,2.1-.8,2-1.3,1.7-1.7,1.3-2,.8-2.1,.3-2.1-.4ZM264.6,.4l-4.6,.3-4.5,1-4.4,1.6-4.1,2.2-3.7,2.8-3.3,3.3-2.8,3.7-2.2,4.1-1.6,4.3-1,4.6-.3,4.6v24l.3,4.6,1,4.5,1.6,4.4,2.2,4.1,2.8,3.7,3.3,3.3,3.7,2.8,4.1,2.2,4.4,1.6,4.5,1,4.6,.3h16.1l4.6-.3,4.6-1,4.3-1.6,4.1-2.2,3.7-2.8,3.3-3.3,2.8-3.7,2.2-4.1,1.6-4.4,1-4.5,.3-4.6v-24.2l-.3-4.6-1-4.6-1.6-4.3-2.2-4.1-2.8-3.7-3.3-3.3-3.7-2.8-4.1-2.2-4.3-1.6-4.6-1-4.5-.3h-16.2v.2Zm125.3,0V62.7L372.1,.4h-46.9V89.3h26.9V26.9l17.9,62.4h46.9V.4h-27Zm68.8,17.4h8l2.1,.3,2,.8,1.7,1.3,1.3,1.7,.8,1.9,.3,2.1V63.7l-.3,2.1-.8,2-1.3,1.7-1.7,1.3-2,.8-2.1,.3h-8V17.8ZM429.1,.4V89.3h45.8l4.6-.3,4.5-1,4.3-1.6,4.1-2.2,3.7-2.8,3.3-3.3,2.8-3.7,2.2-4.1,1.6-4.4,1-4.5,.3-4.6v-24.3l-.3-4.6-1-4.6-1.6-4.3-2.2-4.1-2.8-3.7-3.3-3.3-3.7-2.8-4.1-2.2-4.3-1.6-4.5-1-4.7-.3h-45.7V.4Zm128.4,71.1l-2-.8-1.7-1.3-1.3-1.7-.8-2-.3-2.1V25.9l.3-2.1,.8-1.9,1.3-1.7,1.7-1.3,2-.8,2.1-.3,2.1,.3,2,.8,1.7,1.3,1.3,1.7,.8,1.9,.3,2.1V63.6l-.3,2.1-.8,2-1.3,1.7-1.7,1.3-2,.8-2.1,.3-2.1-.3ZM551.6,.4l-4.6,.3-4.5,1-4.4,1.6-4.1,2.2-3.7,2.8-3.3,3.3-2.8,3.7-2.2,4.1-1.6,4.3-1,4.6-.3,4.6v24l.3,4.6,1,4.5,1.6,4.4,2.2,4.1,2.8,3.7,3.3,3.3,3.7,2.8,4.1,2.2,4.4,1.6,4.5,1,4.6,.3h16.1l4.6-.3,4.6-1,4.3-1.6,4.1-2.2,3.7-2.8,3.3-3.3,2.8-3.7,2.2-4.1,1.6-4.4,1-4.5,.3-4.6v-24.2l-.3-4.6-1-4.6-1.6-4.3-2.2-4.1-2.8-3.7-3.3-3.3-3.7-2.8-4.1-2.2-4.3-1.6-4.6-1-4.6-.3h-16.1v.2Z" style="fill:#0b79be;"/></g></svg>