<?xml version="1.0" encoding="UTF-8"?><svg id="a" xmlns="http://www.w3.org/2000/svg" viewBox="0 0 29.6 20.13"><path d="M7.8,9.31h-2.23v-2.23c0-.41-.34-.75-.75-.75s-.75,.34-.75,.75v2.23H1.84c-.41,0-.75,.34-.75,.75s.34,.75,.75,.75h2.23v2.23c0,.41,.34,.75,.75,.75s.75-.34,.75-.75v-2.23h2.23c.41,0,.75-.34,.75-.75s-.34-.75-.75-.75Z" style="fill:#fff;"/><path d="M16.04,18.25c-1.35,.16-2.14-.17-2.37-.99-.19-.71,.54-1.92,1.24-3.1,.75-1.25,1.6-2.67,1.76-4.09,.09-.83-.14-1.61-.68-2.25-1.48-1.76-4.85-2-5.22-2.03-.41-.03-.77,.29-.79,.71-.02,.41,.29,.77,.71,.79,.85,.05,3.25,.41,4.16,1.5,.28,.33,.38,.68,.33,1.11-.12,1.1-.85,2.31-1.55,3.49-.91,1.51-1.76,2.94-1.41,4.26,.38,1.38,1.53,2.14,3.21,2.14,.25,0,.51-.02,.78-.05,.41-.05,.7-.42,.65-.84-.05-.41-.42-.7-.84-.65Z" style="fill:#fff;"/><path d="M28.2,4.28l-1.11-.57,.08-.18c.08-.18,.08-.39,0-.57s-.22-.33-.4-.41l-.78-.34,.38-.76c.19-.37,.04-.82-.33-1.01-.37-.19-.82-.04-1.01,.33l-.42,.83-.75-.33c-.18-.08-.39-.08-.57,0-.18,.07-.33,.22-.41,.4l-5.82,13.27s0,.01,0,.02c-.02,.05-.03,.11-.04,.17,0,.04-.02,.08-.02,.12,0,.01,0,.02,0,.03l.2,3.21c.02,.27,.17,.51,.41,.62,.11,.05,.22,.08,.33,.08,.14,0,.29-.04,.41-.12l2.71-1.79s.01-.01,.02-.02c.06-.04,.12-.1,.16-.16,.02-.03,.03-.05,.05-.08,.01-.02,.03-.04,.04-.07l5.14-11.87,.41,.21-1.77,4.3c-.16,.38,.02,.82,.41,.98,.09,.04,.19,.06,.29,.06,.29,0,.57-.17,.69-.46l2.04-4.94c.15-.36,0-.77-.35-.95Zm-9.69,11.09l3.51-7.93,1.54,.63-3.5,8.08-1.44,.95-.11-1.74Zm5.65-8.68l-1.54-.63,1.35-3.12,1.53,.66-1.34,3.08Z" style="fill:#fff;"/></svg>