<?xml version="1.0" encoding="UTF-8"?><svg id="a" xmlns="http://www.w3.org/2000/svg" viewBox="0 0 23 20.13"><path d="M20.87,11.84c-1.17-1.18-2.83-1.78-4.94-1.78h-.03c-2.12,0-3.8,.61-4.97,1.8-1.68,1.71-1.67,3.98-1.67,4.08,0,.41,.34,.74,.75,.74h0c.41,0,.74-.34,.74-.76,0-.02,0-1.77,1.25-3.02,.88-.89,2.19-1.34,3.89-1.34,1.72,0,3,.44,3.88,1.32,1.25,1.25,1.25,3.02,1.25,3.04,0,.41,.33,.75,.74,.76h.01c.41,0,.74-.33,.75-.74,0-.1,.02-2.39-1.67-4.1Z" style="fill:#fff;"/><path d="M16.02,9.37c1.93,0,3.5-1.57,3.5-3.5s-1.57-3.5-3.5-3.5-3.5,1.57-3.5,3.5,1.57,3.5,3.5,3.5Zm0-5.5c1.1,0,2,.9,2,2s-.9,2-2,2-2-.9-2-2,.9-2,2-2Z" style="fill:#fff;"/><path d="M7.48,8.6h-2.23v-2.23c0-.41-.34-.75-.75-.75s-.75,.34-.75,.75v2.23H1.52c-.41,0-.75,.34-.75,.75s.34,.75,.75,.75H3.75v2.23c0,.41,.34,.75,.75,.75s.75-.34,.75-.75v-2.23h2.23c.41,0,.75-.34,.75-.75s-.34-.75-.75-.75Z" style="fill:#fff;"/></svg>