<?xml version="1.0" encoding="UTF-8"?><svg id="a" xmlns="http://www.w3.org/2000/svg" viewBox="0 0 21.3 21.56"><g id="b" transform="translate(0.75 0.75)"><path d="M7.92,21.46c-1.56,0-2.85-1.26-2.87-2.84v-.89c0-.41,.34-.75,.75-.75s.75,.34,.75,.75v.88c.01,.75,.68,1.36,1.41,1.35h10.14c.36,.02,.73-.13,1-.39,.27-.26,.42-.6,.42-.97V3.17c0-.36-.16-.7-.42-.96-.27-.26-.64-.4-.99-.39H7.97c-.78,.02-1.41,.6-1.42,1.36v4.85c0,.41-.34,.75-.75,.75s-.75-.34-.75-.75V3.17c.03-1.6,1.33-2.86,2.93-2.85h10.11c.74-.04,1.49,.28,2.04,.81,.55,.54,.87,1.26,.88,2.03v15.45c-.01,.78-.32,1.5-.88,2.04-.54,.52-1.25,.81-2,.81H7.92Z" style="fill:#0076c0;"/><path d="M5.8,18.48C2.71,18.48,.2,15.97,.2,12.88S2.71,7.28,5.8,7.28s5.6,2.51,5.6,5.6-2.51,5.6-5.6,5.6Zm0-9.7c-2.26,0-4.1,1.84-4.1,4.1s1.84,4.1,4.1,4.1,4.1-1.84,4.1-4.1-1.84-4.1-4.1-4.1Z" style="fill:#0076c0;"/><path d="M5.8,15.63c-.41,0-.75-.34-.75-.75v-4c0-.41,.34-.75,.75-.75s.75,.34,.75,.75v4c0,.41-.34,.75-.75,.75Z" style="fill:#0076c0;"/><path d="M7.8,13.63H3.8c-.41,0-.75-.34-.75-.75s.34-.75,.75-.75h4c.41,0,.75,.34,.75,.75s-.34,.75-.75,.75Z" style="fill:#0076c0;"/><path d="M16.98,7.98h-6.63c-.41,0-.75-.34-.75-.75s.34-.75,.75-.75h6.63c.41,0,.75,.34,.75,.75s-.34,.75-.75,.75Z" style="fill:#0076c0;"/><path d="M16.98,11.45h-4.15c-.41,0-.75-.34-.75-.75s.34-.75,.75-.75h4.15c.41,0,.75,.34,.75,.75s-.34,.75-.75,.75Z" style="fill:#0076c0;"/><path d="M16.98,14.92h-4.15c-.41,0-.75-.34-.75-.75s.34-.75,.75-.75h4.15c.41,0,.75,.34,.75,.75s-.34,.75-.75,.75Z" style="fill:#0076c0;"/></g></svg>