<?xml version="1.0" encoding="UTF-8"?><svg id="a" xmlns="http://www.w3.org/2000/svg" viewBox="0 0 33.96 20.13"><path d="M7.97,9.68h-2.23v-2.23c0-.41-.34-.75-.75-.75s-.75,.34-.75,.75v2.23H2.01c-.41,0-.75,.34-.75,.75s.34,.75,.75,.75h2.23v2.23c0,.41,.34,.75,.75,.75s.75-.34,.75-.75v-2.23h2.23c.41,0,.75-.34,.75-.75s-.34-.75-.75-.75Z" style="fill:#fff;"/><path d="M30.75,12.03c.01-.07,.03-.14,.02-.21-.33-3.61-2.75-6.65-6.18-7.81v-.56c0-.41-.34-.75-.75-.75h-4.73c-.41,0-.75,.34-.75,.75v.72c-3.11,1.22-5.3,4-5.73,7.32-.03,.2,.03,.38,.14,.53-1.4,.11-2.5,1.27-2.5,2.7,0,1.5,1.22,2.72,2.72,2.72H30.38c1.5,0,2.72-1.22,2.72-2.72,0-1.37-1.03-2.5-2.35-2.68Zm-12.39-6.23v2.37c0,.41,.34,.75,.75,.75s.75-.34,.75-.75v-3.98h3.23v3.98c0,.41,.34,.75,.75,.75s.75-.34,.75-.75v-2.56c2.6,1.08,4.42,3.49,4.68,6.33,0,.01,0,.02,.01,.04H14c.06-.09,.11-.2,.13-.32,.33-2.58,1.94-4.76,4.24-5.87Zm12.01,10.13H13c-.67,0-1.22-.55-1.22-1.22s.55-1.22,1.22-1.22H30.38c.67,0,1.22,.55,1.22,1.22s-.55,1.22-1.22,1.22Z" style="fill:#fff;"/></svg>