<?xml version="1.0" encoding="UTF-8"?><svg id="a" xmlns="http://www.w3.org/2000/svg" viewBox="0 0 29.6 20.13"><path d="M8.52,9.53h-2.23v-2.23c0-.41-.34-.75-.75-.75s-.75,.34-.75,.75v2.23H2.56c-.41,0-.75,.34-.75,.75s.34,.75,.75,.75h2.23v2.23c0,.41,.34,.75,.75,.75s.75-.34,.75-.75v-2.23h2.23c.41,0,.75-.34,.75-.75s-.34-.75-.75-.75Z" style="fill:#fff;"/><path d="M27.53,5.99L22.45,1.73c-.13-.11-.31-.18-.48-.18h-7.53c-.41,0-.75,.34-.75,.75v15.52h0c0,.42,.34,.75,.75,.75h12.6c.41,0,.75-.34,.75-.75V6.57c0-.22-.1-.43-.27-.57Zm-1.34,.84h-3.86V3.59l3.86,3.24Zm-11,10.25V3.05h5.64V7.58c0,.41,.34,.75,.75,.75h4.71v8.75H15.19Z" style="fill:#fff;"/></svg>