<?xml version="1.0" encoding="UTF-8"?><svg id="a" xmlns="http://www.w3.org/2000/svg" viewBox="0 0 33.96 20.13"><path d="M7.37,10.09h-2.23v-2.23c0-.41-.34-.75-.75-.75s-.75,.34-.75,.75v2.23H1.41c-.41,0-.75,.34-.75,.75s.34,.75,.75,.75H3.64v2.23c0,.41,.34,.75,.75,.75s.75-.34,.75-.75v-2.23h2.23c.41,0,.75-.34,.75-.75s-.34-.75-.75-.75Z" style="fill:#fff;"/><path d="M30.18,14.13h-8.89c-1.39-.08-2.61,.99-2.71,2.39,0,.04,0,.07,0,.11,.1,1.35,1.24,2.39,2.53,2.39,.05,0,.1,0,.16,0h8.87c1.42,.09,2.63-.98,2.73-2.39,0-.04,0-.07,0-.11-.1-1.41-1.32-2.49-2.69-2.39Zm0,3.39h-8.96c-.54,.04-1.07-.38-1.14-.94,.07-.56,.58-.98,1.14-.95,.02,0,.03,0,.05,0h8.96c.56-.04,1.07,.38,1.14,.94-.07,.56-.55,.98-1.19,.94Z" style="fill:#fff;"/><path d="M16,14.25v-2.77c0-.26-.15-.49-.35-.62l.83-7.32s0-.03,0-.05c0-.02,.01-.04,0-.06,0-.09-.02-.18-.04-.27h2.26c.14,0,.27,.07,.34,.19l1.79,2.87c-.03,.09-.08,.18-.09,.27l-.75,5.84s0,.09,0,.1c0,.73,.59,1.33,1.33,1.33h9.3c.08,0,.15,0,.24-.02,.35-.07,.65-.27,.85-.56,.2-.29,.27-.65,.2-1l-.45-2.26c-.12-.62-.67-1.07-1.3-1.07h-2.76l-.47-2.43c-.12-.62-.67-1.08-1.3-1.08h-3.58l-1.74-2.78c-.35-.56-.95-.89-1.61-.89h-2.97s-.08,.02-.12,.02c-.4-.33-.9-.55-1.45-.57-1.31-.04-2.44,.99-2.48,2.32,0,.02,0,.04,0,.06,0,.02,0,.03,0,.05l.79,7.23c-.87,.08-1.68,.46-2.28,1.09-1.12,1.17-1.11,3,.01,4.15,.68,.73,1.65,1.14,2.64,1.14h3.69c.41,0,.75-.34,.75-.75,0-.7-.31-1.35-.85-1.79l-.44-.36Zm9.97-4.99c.12,.62,.67,1.07,1.3,1.08h2.76l.38,1.91h-8.89l.7-5.42h3.28l.47,2.43ZM14.12,2.61c.46,.02,.84,.39,.86,.85l-.83,7.27h-.17l-.8-7.27c.03-.49,.44-.88,.93-.85Zm-1.23,13.04c-.61,0-1.17-.24-1.58-.68-.56-.58-.57-1.49,0-2.08,.39-.42,.93-.65,1.51-.65h1.7v2.38c0,.23,.1,.44,.28,.58l.56,.46h-2.46Z" style="fill:#fff;"/><path d="M22.3,10.45c.14,.16,.34,.25,.56,.25h2.34c.41,0,.75-.34,.75-.75s-.34-.75-.75-.75h-1.51l.15-1.46c.04-.41-.26-.78-.67-.82-.42-.03-.78,.26-.82,.67l-.24,2.29c-.02,.21,.05,.42,.19,.58Z" style="fill:#fff;"/></svg>