<?xml version="1.0" encoding="UTF-8"?><svg id="a" xmlns="http://www.w3.org/2000/svg" viewBox="0 0 23 20.13"><g id="b" transform="translate(0.75 0.904)"><path d="M18.46,17.99h-7.61c-.41,0-.75-.34-.75-.75s.34-.75,.75-.75h7.61c.41,0,.75,.34,.75,.75s-.34,.75-.75,.75Z" style="fill:#0076c0;"/><path d="M4.42,17.99c-.2,0-.39-.08-.53-.22-.19-.19-.26-.46-.2-.71l.85-3.38c.03-.13,.1-.25,.2-.35L15.3,2.76c.99-.99,2.6-.99,3.6,0,.99,.99,.99,2.61,0,3.6l-10.57,10.57c-.1,.1-.22,.16-.35,.2l-3.38,.84c-.06,.02-.12,.02-.18,.02Zm1.52-3.75l-.49,1.97,1.97-.49L17.84,5.29c.41-.41,.41-1.07,0-1.48-.39-.39-1.08-.4-1.48,0h0L5.94,14.24ZM15.83,3.29h0Z" style="fill:#0076c0;"/><path d="M4.42,17.99c-.2,0-.39-.08-.53-.22-.19-.19-.26-.46-.2-.71l.85-3.38c.03-.13,.1-.25,.2-.35L15.3,2.76c.99-.99,2.6-.99,3.6,0,.99,.99,.99,2.61,0,3.6l-10.57,10.57c-.1,.1-.22,.16-.35,.2l-3.38,.84c-.06,.02-.12,.02-.18,.02Zm1.52-3.75l-.49,1.97,1.97-.49L17.84,5.29c.41-.41,.41-1.07,0-1.48-.39-.39-1.08-.4-1.48,0h0L5.94,14.24ZM15.83,3.29h0Z" style="fill:#0076c0;"/></g></svg>