<?xml version="1.0" encoding="UTF-8"?><svg id="a" xmlns="http://www.w3.org/2000/svg" viewBox="0 0 28.41 21.56"><path d="M24.91,15.71H14.43c-1.55-.08-2.94,1.12-3.05,2.69,0,.04,0,.07,0,.11,.11,1.53,1.39,2.7,2.86,2.7,.06,0,.12,0,.17,0h10.46c1.58,.1,2.96-1.11,3.08-2.69,0-.04,0-.07,0-.11-.11-1.59-1.48-2.8-3.03-2.7Zm0,4H14.36c-.76,.05-1.4-.51-1.49-1.25,.08-.74,.72-1.29,1.49-1.25,.02,0,.03,0,.05,0h10.55c.75-.05,1.4,.51,1.48,1.25-.08,.74-.76,1.29-1.53,1.25Z" style="fill:#0076c0;"/><path d="M8.07,15.78v-3.33c0-.3-.18-.55-.42-.67l.99-8.71s0-.03,0-.05c0-.02,.01-.04,.01-.06,0-.16-.03-.31-.06-.46h2.81c.21,0,.4,.11,.51,.28l2.15,3.44c-.05,.11-.1,.23-.12,.35l-.88,6.82s0,.14,0,.16c0,.79,.64,1.43,1.43,1.43h10.96c.09,0,.17,0,.26-.03,.77-.15,1.28-.9,1.13-1.68l-.53-2.67c-.13-.67-.73-1.15-1.4-1.15l-3.34,.06-.58-3.03c-.13-.67-.72-1.16-1.4-1.16h-4.21s-.05,.01-.08,.02l-2.09-3.35c-.39-.62-1.05-.99-1.79-.99h-3.5c-.06,0-.11,.02-.17,.03-.46-.4-1.04-.66-1.69-.68-.71-.02-1.41,.24-1.93,.73-.53,.49-.83,1.16-.85,1.88,0,.02,0,.04,0,.05,0,.02,0,.03,0,.05l.95,8.65c-1.04,.06-2.02,.5-2.73,1.26-1.26,1.33-1.25,3.4,.01,4.71,.78,.83,1.88,1.31,3.02,1.31h4.34c.41,0,.75-.34,.75-.75,0-.78-.35-1.51-.95-2l-.57-.46Zm12.01-5.97c.13,.67,.72,1.16,1.4,1.16l3.35-.06,.51,2.58H14.56l.86-6.66,4.08-.05,.58,3.03ZM5.99,1.86c.62,.02,1.12,.52,1.15,1.13l-.99,8.71h-.44l-.95-8.71c.01-.31,.14-.6,.37-.81,.23-.22,.52-.33,.86-.32Zm-1.46,15.64c-.72,.03-1.45-.3-1.96-.84-.71-.74-.72-1.89,0-2.64,.48-.52,1.16-.81,1.87-.81h2.14v2.94c0,.23,.1,.44,.28,.58l.85,.69s.07,.06,.1,.09h-3.27Z" style="fill:#0076c0;"/><path d="M16.28,11.38h2.76c.41,0,.75-.34,.75-.75s-.34-.75-.75-.75h-1.93l.19-1.86c.04-.41-.26-.78-.67-.82-.4-.03-.78,.26-.82,.67l-.28,2.69c-.02,.21,.05,.42,.19,.58,.14,.16,.34,.25,.56,.25Z" style="fill:#0076c0;"/></svg>