<?xml version="1.0" encoding="utf-8"?>
<!-- Generator: Adobe Illustrator 26.3.1, SVG Export Plug-In . SVG Version: 6.00 Build 0)  -->
<svg version="1.1" id="a" xmlns="http://www.w3.org/2000/svg" xmlns:xlink="http://www.w3.org/1999/xlink" x="0px" y="0px"
	 viewBox="0 0 24.3 21.5" style="enable-background:new 0 0 24.3 21.5;" xml:space="preserve">
<style type="text/css">
	.st0{fill:#0076C0;}
</style>
<g id="b" transform="translate(-2.25 -2.25)">
	<path class="st0" d="M20.4,10.8c-0.4,0-0.8-0.3-0.8-0.8V3.9H9.2v6.2c0,0.4-0.3,0.8-0.8,0.8s-0.8-0.3-0.8-0.8V3.1
		c0-0.4,0.3-0.8,0.8-0.8h11.9c0.4,0,0.8,0.3,0.8,0.8v6.9C21.1,10.5,20.8,10.8,20.4,10.8z"/>
	<path class="st0" d="M22.3,19.7h-2c-0.4,0-0.8-0.3-0.8-0.8s0.3-0.8,0.8-0.8h2c0.7,0,1.2-0.5,1.2-1.2V12c0-0.7-0.5-1.2-1.2-1.2H6.5
		c-0.7,0-1.2,0.6-1.2,1.2v5c0,0.7,0.5,1.2,1.2,1.2h2c0.4,0,0.8,0.3,0.8,0.8s-0.3,0.8-0.8,0.8h-2c-1.5,0-2.7-1.2-2.7-2.7V12
		c0-1.5,1.2-2.7,2.7-2.7h15.8c1.5,0,2.7,1.2,2.7,2.7V17C25.1,18.5,23.8,19.7,22.3,19.7z"/>
	<path class="st0" d="M20.4,23.7H8.5c-0.4,0-0.8-0.3-0.8-0.8V15c0-0.4,0.3-0.8,0.8-0.8h11.9c0.4,0,0.8,0.3,0.8,0.8v7.9
		C21.1,23.3,20.8,23.7,20.4,23.7z M9.2,22.2h10.4v-6.4H9.2C9.2,15.7,9.2,22.2,9.2,22.2z"/>
</g>
</svg>
