<?xml version="1.0" encoding="UTF-8"?><svg id="a" xmlns="http://www.w3.org/2000/svg" viewBox="0 0 28.41 21.56"><path id="b" d="M14.2,3.66c-4.77-.06-9.1,2.75-11,7.13,1.9,4.37,6.23,7.18,11,7.12,4.77,.06,9.1-2.75,11-7.13-1.9-4.37-6.23-7.18-11-7.12Zm0,11.88c-2.69,.07-4.93-2.06-5-4.75,.07-2.69,2.31-4.82,5-4.75,2.69-.07,4.93,2.06,5,4.75-.07,2.69-2.31,4.82-5,4.75Zm0-7.6c-1.61-.04-2.96,1.23-3,2.85h0c.04,1.62,1.38,2.89,3,2.85h0c1.61,.04,2.96-1.23,3-2.85h0c-.04-1.62-1.38-2.89-3-2.86h0Z" style="fill:#0076c0;"/></svg>