<?xml version="1.0" encoding="UTF-8"?><svg id="a" xmlns="http://www.w3.org/2000/svg" viewBox="0 0 21.3 21.56"><path d="M5.62,7.32h1.08c0,.25,0,.51,0,.73,0,2.19,1.78,3.97,3.97,3.97s3.93-1.74,3.97-3.9c.05-.26,.06-.53,.04-.8h1.04c.41,0,.75-.34,.75-.75s-.34-.75-.75-.75h-.37s.02-.09,.01-.14c-.17-1.8-1.32-3.27-2.93-3.92v-.05c0-.41-.34-.75-.75-.75-.32,0-.58,.2-.69,.47-.29-.02-.58-.02-.86,.01-.11-.28-.38-.48-.7-.48-.41,0-.75,.34-.75,.75v.13c-1.42,.66-2.5,2-2.72,3.66-.01,.11,0,.21,.03,.31h-.4c-.41,0-.75,.34-.75,.75s.34,.75,.75,.75Zm7.55,.58s-.01,.1-.01,.14c0,1.36-1.11,2.47-2.47,2.47s-2.47-1.11-2.48-2.52c-.01-.22,0-.45,0-.68h4.98c.02,.2,.02,.39-.01,.58Zm-5.69-2.2c.12-.88,.58-1.63,1.23-2.13v.38c0,.41,.34,.75,.75,.75s.75-.34,.75-.75v-1.01c.24-.04,.49-.05,.75-.02v1.03c0,.41,.34,.75,.75,.75s.75-.34,.75-.75v-.51c.79,.52,1.34,1.38,1.43,2.38H7.45s.03-.07,.04-.12Z" style="fill:#0076c0;"/><path d="M16.19,14.75c-1.3-1.32-3.15-1.98-5.51-1.98h-.03c-2.37,0-4.24,.68-5.55,2.01-1.87,1.9-1.86,4.43-1.86,4.54,0,.41,.34,.74,.75,.74h0c.41,0,.75-.34,.74-.76,0-.02,0-2.04,1.44-3.48,1.01-1.02,2.52-1.54,4.47-1.55h.03c1.93,0,3.42,.51,4.43,1.53,1.44,1.45,1.44,3.48,1.44,3.5,0,.41,.33,.75,.74,.76h.01c.41,0,.74-.33,.75-.74,0-.11,.02-2.66-1.87-4.56Z" style="fill:#0076c0;"/></svg>