<?xml version="1.0" encoding="UTF-8"?><svg id="a" xmlns="http://www.w3.org/2000/svg" viewBox="0 0 28.95 27.07"><path d="M22.14,3.33H6.81c-.55,0-1,.45-1,1V25.88c0,.55,.45,1,1,1h15.33c.55,0,1-.45,1-1V4.33c0-.55-.45-1-1-1Zm-1,21.56H7.81V5.33h13.33V24.88Z" style="fill:#93c5fd;"/><path d="M9.55,2.19h10.16c.55,0,1-.45,1-1s-.45-1-1-1H9.55c-.55,0-1,.45-1,1s.45,1,1,1Z" style="fill:#93c5fd;"/><path d="M11.1,9.66h1.45c.55,0,1-.45,1-1s-.45-1-1-1h-1.45c-.55,0-1,.45-1,1s.45,1,1,1Z" style="fill:#93c5fd;"/><path d="M16.27,9.66h1.45c.55,0,1-.45,1-1s-.45-1-1-1h-1.45c-.55,0-1,.45-1,1s.45,1,1,1Z" style="fill:#93c5fd;"/><path d="M12.68,11.84h-1.45c-.55,0-1,.45-1,1s.45,1,1,1h1.45c.55,0,1-.45,1-1s-.45-1-1-1Z" style="fill:#93c5fd;"/><path d="M17.84,11.84h-1.45c-.55,0-1,.45-1,1s.45,1,1,1h1.45c.55,0,1-.45,1-1s-.45-1-1-1Z" style="fill:#93c5fd;"/><path d="M11.1,18.62h1.45c.55,0,1-.45,1-1s-.45-1-1-1h-1.45c-.55,0-1,.45-1,1s.45,1,1,1Z" style="fill:#93c5fd;"/><path d="M16.27,18.62h1.45c.55,0,1-.45,1-1s-.45-1-1-1h-1.45c-.55,0-1,.45-1,1s.45,1,1,1Z" style="fill:#93c5fd;"/><path d="M12.68,20.8h-1.45c-.55,0-1,.45-1,1s.45,1,1,1h1.45c.55,0,1-.45,1-1s-.45-1-1-1Z" style="fill:#93c5fd;"/><path d="M17.84,20.8h-1.45c-.55,0-1,.45-1,1s.45,1,1,1h1.45c.55,0,1-.45,1-1s-.45-1-1-1Z" style="fill:#93c5fd;"/></svg>