<?xml version="1.0" encoding="UTF-8"?><svg id="a" xmlns="http://www.w3.org/2000/svg" viewBox="0 0 30.42 28.44"><path d="M26.86,16.7c.01-.08,.03-.16,.03-.24-.42-4.64-3.52-8.55-7.92-10.04v-.69c0-.55-.45-1-1-1h-6.06c-.55,0-1,.45-1,1v.89c-3.98,1.57-6.79,5.14-7.34,9.4-.03,.24,.04,.46,.16,.65-1.78,.17-3.19,1.66-3.19,3.49,0,1.94,1.58,3.53,3.53,3.53H26.35c1.95,0,3.53-1.58,3.53-3.53,0-1.77-1.31-3.22-3.01-3.47Zm-15.95-7.89v2.99c0,.55,.45,1,1,1s1-.45,1-1V6.74h4.06v5.06c0,.55,.45,1,1,1s1-.45,1-1v-3.22c3.3,1.39,5.59,4.45,5.92,8.06H5.43c.06-.1,.11-.22,.12-.36,.42-3.27,2.44-6.04,5.36-7.47Zm15.43,12.89H4.07c-.84,0-1.53-.68-1.53-1.53s.69-1.53,1.53-1.53H26.35c.84,0,1.53,.68,1.53,1.53s-.69,1.53-1.53,1.53Z" style="fill:#93c5fd;"/></svg>