<?xml version="1.0" encoding="UTF-8"?><svg id="a" xmlns="http://www.w3.org/2000/svg" viewBox="0 0 23.48 16.84"><path d="M22.09,1.29s0-.01-.01-.02c0,0-.02-.01-.03-.02-.36-.31-.82-.51-1.33-.52H2.98c-.56,.01-1.06,.25-1.43,.61,0,0-.01,0-.02,.01h0c-.39,.4-.62,.94-.61,1.52V13.95c-.02,1.16,.9,2.13,2.08,2.15H20.73c1.16-.03,2.09-.99,2.06-2.14V2.89c.01-.63-.26-1.2-.7-1.6ZM2.99,1.94H20.61L11.81,11.12,2.94,1.95s.03-.01,.05-.01Zm-.88,12.03V2.87s0-.02,0-.04l5.62,5.81L2.27,14.46c-.09-.15-.15-.31-.15-.49Zm6.46-4.47l2.61,2.69c.16,.17,.39,.27,.64,.28,.24,0,.46-.1,.62-.27l2.7-2.81,4.37,5.52H3.49l5.08-5.41Zm13.02,4.48c0,.4-.26,.74-.62,.87,0-.01-.01-.03-.02-.04l-4.98-6.29,5.59-5.83c.01,.07,.04,.13,.04,.2V13.98Z" style="fill:#fff;"/></svg>