<?xml version="1.0" encoding="UTF-8"?><svg id="a" xmlns="http://www.w3.org/2000/svg" viewBox="0 0 16.81 16.84"><path d="M13.71,9.38c-.21-.22-.48-.39-.77-.49-.5-.17-1.03-.13-1.49,.1-.47,.23-.82,.63-.98,1.11-.14,.37-.53,.58-.83,.52-1.59-.57-2.84-1.81-3.42-3.4-.09-.37,.12-.74,.49-.86,.29-.1,.56-.27,.77-.49,.36-.38,.56-.87,.55-1.39s-.22-1.01-.59-1.37L5.38,1.05c-.79-.73-1.99-.73-2.8,.02l-1.4,1.4c-1.67,1.75-.13,5.87,3.58,9.58,2.72,2.72,5.63,4.27,7.68,4.27,.78,0,1.44-.23,1.91-.7l1.4-1.4c.73-.79,.73-1.99-.02-2.8l-2.03-2.04Zm1.19,4l-1.38,1.38c-1.04,1.05-4.47-.14-7.89-3.57C2.27,7.85,1.05,4.35,2.04,3.3l1.37-1.37c.17-.15,.38-.23,.58-.23s.4,.07,.55,.21l2.05,2.05c.3,.29,.31,.77,.01,1.07-.08,.08-.19,.15-.29,.19-.98,.31-1.54,1.34-1.27,2.33,0,.02,0,.03,.01,.05,.7,1.94,2.21,3.45,4.22,4.17,.96,.21,1.95-.33,2.3-1.27,.06-.19,.2-.35,.38-.43,.18-.09,.39-.1,.58-.04,.11,.04,.22,.1,.31,.19l2.02,2.02c.3,.32,.3,.83,.02,1.14Z" style="fill:#fff;"/></svg>