<?xml version="1.0" encoding="utf-8"?>
<!-- Generator: Adobe Illustrator 26.3.1, SVG Export Plug-In . SVG Version: 6.00 Build 0)  -->
<svg version="1.1" id="b" xmlns="http://www.w3.org/2000/svg" xmlns:xlink="http://www.w3.org/1999/xlink" x="0px" y="0px"
	 viewBox="0 0 47 47" style="enable-background:new 0 0 47 47;" xml:space="preserve">
<style type="text/css">
	.st0{fill:#F5FAFE;}
	.st1{fill:#0076C0;}
</style>
<g>
	<path class="st0" d="M46.8,23.5C46.8,10.5,36.2,0,23.2,0S-0.2,10.5-0.2,23.5c0,7.1,3.2,13.5,8.2,17.8c1.1-7.8,7.7-13.7,15.7-13.7
		c7.8,0,14.3,5.6,15.6,13.1C43.9,36.4,46.8,30.3,46.8,23.5z M23.7,25.5c-3.9,0-7-3.2-7-7c0-3.9,3.2-7,7-7c0,0,0,0,0,0
		c3.9,0,7,3.2,7,7C30.7,22.4,27.6,25.5,23.7,25.5z"/>
</g>
<g>
	<path id="Trazado_211_00000057827900353786516510000001514031511509104548_" class="st1" d="M30.8,18.5c0,3.9-3.2,7-7,7s-7-3.2-7-7
		s3.2-7,7-7c0,0,0,0,0,0C27.6,11.4,30.8,14.6,30.8,18.5z"/>
	<g>
		<path class="st1" d="M23.3,46.9c6.2,0,11.8-2.4,16-6.2c-1.3-7.4-7.8-13-15.6-13c-8,0-14.6,5.9-15.7,13.7
			C12.1,44.7,17.5,46.9,23.3,46.9z"/>
	</g>
</g>
</svg>
