<?xml version="1.0" encoding="UTF-8"?><svg id="a" xmlns="http://www.w3.org/2000/svg" viewBox="0 0 28.95 27.94"><path d="M10.35,25.51c-1.92,.25-3.06-.23-3.38-1.43-.27-1.02,.76-2.74,1.75-4.4,1.1-1.84,2.24-3.74,2.47-5.73,.13-1.17-.19-2.22-.94-3.12-2.08-2.46-6.78-2.8-7.31-2.83-.55-.03-1.02,.39-1.06,.94s.39,1.02,.94,1.06c1.2,.07,4.61,.59,5.9,2.12,.4,.47,.55,.98,.48,1.6-.17,1.56-1.2,3.27-2.19,4.92-1.27,2.11-2.47,4.11-1.97,5.95,.52,1.92,2.11,2.96,4.44,2.96,.36,0,.73-.02,1.12-.07,.55-.07,.93-.57,.87-1.12s-.57-.93-1.12-.87Z" style="fill:#93c5fd;"/><path d="M27.42,5.87l-1.61-.83,.13-.31c.11-.24,.11-.52,.01-.77s-.29-.44-.53-.55l-1.14-.49,.56-1.12c.25-.49,.05-1.09-.45-1.34-.49-.25-1.09-.05-1.34,.45l-.61,1.22-1.11-.48c-.24-.11-.52-.11-.77-.01-.25,.1-.44,.29-.55,.53l-2.74,6.34v.02h-.01l-5.44,12.3s0,.02,0,.03c-.03,.07-.04,.15-.05,.22,0,.06-.02,.11-.02,.17,0,.01,0,.03,0,.04l.28,4.52c.02,.36,.23,.67,.55,.83,.14,.07,.29,.11,.45,.11,.19,0,.38-.06,.55-.17l3.81-2.52s0,0,.01-.01c.09-.06,.17-.14,.24-.24,.02-.03,.04-.06,.05-.09,.02-.03,.05-.06,.06-.1L25.02,6.88l.67,.35-2.51,6.09c-.21,.51,.03,1.1,.54,1.31,.12,.05,.25,.08,.38,.08,.39,0,.77-.23,.92-.62l2.86-6.94c.2-.48,0-1.03-.46-1.27Zm-13.65,15.53l4.96-11.21,2.27,.93-4.95,11.43-2.12,1.4-.16-2.55Zm8.03-12.12l-2.26-.92,1.94-4.49,2.25,.97-1.92,4.43Z" style="fill:#93c5fd;"/></svg>