<?xml version="1.0" encoding="UTF-8"?><svg id="a" xmlns="http://www.w3.org/2000/svg" viewBox="0 0 28.95 27.07"><g id="b" transform="translate(1 1)"><path d="M16.68,26.54h-4.39c-.42,0-.8-.27-.94-.67l-.66-1.76-.96-.41-1.62,.78c-.39,.19-.85,.1-1.15-.2l-3.1-3.19c-.29-.3-.36-.74-.19-1.11l.77-1.69-.43-1.06-1.69-.63c-.39-.15-.65-.52-.65-.94v-4.5c0-.42,.26-.79,.65-.94l1.71-.68,.41-1.01-.77-1.69c-.17-.38-.09-.82,.19-1.11l3.1-3.19c.3-.31,.76-.39,1.15-.2l1.62,.77,1-.42,.62-1.75c.14-.4,.52-.66,.94-.66h4.39c.42,0,.8,.27,.94,.67l.65,1.75,.97,.41,1.62-.78c.38-.18,.85-.1,1.15,.21l3.1,3.19c.29,.3,.36,.74,.19,1.11l-.77,1.69,.43,1.06,1.69,.63c.39,.15,.65,.52,.65,.94v4.5c0,.42-.26,.79-.65,.94l-1.7,.68-.41,1.02,.77,1.69c.17,.38,.09,.82-.19,1.11l-3.1,3.18c-.3,.31-.76,.39-1.15,.2l-1.62-.78-1,.42-.62,1.74c-.14,.4-.52,.67-.94,.67Zm-3.69-2h2.98l.53-1.49c.09-.26,.29-.48,.55-.59l1.83-.77c.26-.11,.56-.1,.82,.02l1.38,.66,2.12-2.18-.67-1.46c-.11-.25-.12-.54-.02-.79l.71-1.77c.09-.23,.26-.41,.48-.52l.74-.37s.06-.03,.1-.04l.74-.28v-3.11l-1.45-.54c-.26-.1-.47-.3-.58-.56l-.75-1.87c-.1-.25-.1-.54,.02-.79l.67-1.46-2.12-2.18-1.38,.66c-.26,.12-.56,.13-.82,.02l-1.74-.74c-.23-.1-.42-.28-.52-.51l-.34-.77-.29-.83h-2.97l-.53,1.5c-.09,.26-.29,.48-.55,.59l-1.82,.77c-.26,.11-.56,.11-.82-.02l-1.38-.66-2.12,2.18,.67,1.46c.11,.25,.12,.53,.02,.79l-.71,1.77c-.09,.23-.27,.42-.49,.52l-.75,.37-.83,.31v3.11l1.45,.54c.26,.1,.47,.3,.58,.56l.76,1.87c.1,.25,.1,.54-.02,.79l-.67,1.46,2.12,2.18,1.38-.66c.26-.12,.56-.13,.82-.02l1.74,.74c.23,.1,.42,.28,.52,.51l.34,.77s.02,.05,.03,.08l.27,.76Z" style="fill:#93c5fd;"/><path d="M14.48,19.73c-3.48,0-6.3-2.83-6.3-6.31s2.83-6.31,6.3-6.31,6.31,2.83,6.31,6.31-2.83,6.31-6.31,6.31Zm0-10.61c-2.37,0-4.3,1.93-4.3,4.31s1.93,4.31,4.3,4.31,4.31-1.93,4.31-4.31-1.93-4.31-4.31-4.31Z" style="fill:#93c5fd;"/></g></svg>