<?xml version="1.0" encoding="utf-8"?>
<!-- Generator: Adobe Illustrator 26.3.1, SVG Export Plug-In . SVG Version: 6.00 Build 0)  -->
<svg version="1.1" id="a" xmlns="http://www.w3.org/2000/svg" xmlns:xlink="http://www.w3.org/1999/xlink" x="0px" y="0px"
	 viewBox="0 0 23.3 25.6" style="enable-background:new 0 0 23.3 25.6;" xml:space="preserve">
<style type="text/css">
	.st0{fill:#93C5FC;}
</style>
<g id="b" transform="translate(1.797 -2)">
	<g id="c" transform="translate(-0.796 2)">
		<path class="st0" d="M21.3,25.6L21.3,25.6c-0.6,0-1-0.5-1-1c0,0,0-3.4-2.4-5.8c-1.7-1.7-4.1-2.5-7.3-2.5c-3.2,0-5.7,0.9-7.3,2.6
			C1,21.3,1,24.5,1,24.6c0,0.5-0.4,1-1,1c-0.6,0-1-0.4-1-1c0-0.2,0-4.1,2.9-7.1c2.1-2.1,5-3.1,8.8-3.2c3.8,0,6.7,1,8.7,3.1
			c3,3,2.9,7,2.9,7.2C22.3,25.1,21.9,25.6,21.3,25.6z"/>
		<g id="d" transform="translate(4.529)">
			<path class="st0" d="M6.1,12.7c-3.5,0-6.3-2.8-6.3-6.3S2.6,0,6.1,0s6.3,2.8,6.3,6.3S9.6,12.7,6.1,12.7z M6.1,2
				C3.7,2,1.8,4,1.8,6.3s1.9,4.3,4.3,4.3s4.3-1.9,4.3-4.3S8.5,2,6.1,2z"/>
		</g>
	</g>
</g>
</svg>
