<?xml version="1.0" encoding="UTF-8"?><svg id="a" xmlns="http://www.w3.org/2000/svg" viewBox="0 0 28.95 27.07"><path d="M7.45,9.04h1.56c-.01,.37-.01,.73,.01,1.06,0,3.03,2.47,5.5,5.5,5.5s5.45-2.42,5.5-5.41c.07-.38,.08-.77,.05-1.15h1.51c.55,0,1-.45,1-1s-.45-1-1-1h-.57c.01-.08,.03-.15,.03-.24-.23-2.51-1.84-4.57-4.09-5.47v-.08c0-.55-.45-1-1-1-.42,0-.77,.26-.92,.62-.44-.03-.86-.03-1.28,.02-.14-.38-.5-.65-.93-.65-.55,0-1,.45-1,1v.19c-1.99,.91-3.49,2.8-3.79,5.13-.02,.17,.01,.32,.07,.47h-.64c-.55,0-1,.45-1,1s.45,1,1,1Zm10.59,.87c-.01,.06-.02,.13-.02,.19,0,1.93-1.57,3.5-3.5,3.5s-3.5-1.57-3.5-3.56c-.02-.33-.01-.66,0-.99h7.03c.04,.29,.04,.58-.01,.87Zm-8.04-3.09c.16-1.28,.85-2.36,1.81-3.07v.64c0,.55,.45,1,1,1s1-.45,1-1v-1.47c.37-.06,.75-.08,1.14-.04v1.51c0,.55,.45,1,1,1s1-.45,1-1v-.83c1.16,.73,1.97,1.97,2.1,3.42,0,.02,.01,.04,.02,.05H9.93c.03-.07,.06-.14,.07-.22Z" style="fill:#93c5fd;"/><path d="M14.52,16.74h-.04c-3.3,0-5.9,.95-7.71,2.79-2.6,2.64-2.58,6.16-2.58,6.3,0,.55,.45,.98,1,.98h.01c.55,0,.99-.46,.99-1.01,0-.03,0-2.86,2.02-4.89,1.42-1.44,3.54-2.17,6.28-2.18h.04c2.71,0,4.8,.72,6.22,2.15,2.03,2.04,2.03,4.9,2.03,4.92,0,.55,.43,1.01,.99,1.01h.01c.55,0,.99-.44,1-.99,0-.15,.02-3.7-2.59-6.34-1.81-1.83-4.38-2.76-7.66-2.76Z" style="fill:#93c5fd;"/></svg>