<?xml version="1.0" encoding="UTF-8"?><svg id="a" xmlns="http://www.w3.org/2000/svg" viewBox="0 0 21.28 17.93"><g id="b" transform="translate(0 0)"><path id="c" d="M19.67,14.4l-3.72-6.44L12.23,1.51c-.49-.85-1.58-1.15-2.44-.65-.27,.16-.5,.38-.65,.65l-3.72,6.44L1.7,14.4c-.49,.85-.2,1.94,.65,2.44,.27,.16,.58,.24,.89,.24h14.88c.99,0,1.78-.8,1.78-1.78,0-.31-.08-.62-.24-.89m-6.62-3.82l-1.66,3.49c-.19,.39-.66,.56-1.05,.38-.39-.19-.56-.66-.38-1.05h0l1.12-2.36h-1.97c-.44,0-.79-.35-.79-.79,0-.11,.02-.23,.07-.33l1.58-3.44c.18-.4,.65-.57,1.05-.39,.4,.18,.57,.65,.39,1.05l-1.07,2.32h1.98c.44,0,.79,.35,.79,.79,0,.12-.03,.23-.08,.34" style="fill:#637193;"/></g></svg>