<?xml version="1.0" encoding="UTF-8"?><svg id="a" xmlns="http://www.w3.org/2000/svg" viewBox="0 0 17.08 17.93"><path d="M16.25,12.56h-2.19l-4.11-1.92,3.25-1.58c.14-.07,.25-.18,.31-.32,.14-.33,0-.71-.34-.86l-3.07-1.33,5.28-2.18s.04-.02,.07-.03c.1-.05,.18-.13,.24-.22,.04-.04,.07-.09,.09-.15,0,0,0-.01,0-.02,.01-.04,.03-.08,.03-.13v-.05s0-.05,0-.08V.78c0-.25-.2-.45-.45-.45H1.73c-.25,0-.45,.2-.45,.45V3.82c0,.19,.12,.35,.28,.42,.04,.03,.08,.07,.13,.09l5.09,2.2-3.26,1.35c-.15,.06-.27,.18-.34,.32-.15,.33-.01,.71,.31,.87l3.44,1.6-3.89,1.89H.84c-.23,0-.42,.19-.42,.42v2.91c0,.23,.19,.42,.42,.43h1.32s0-.03,0-.05c.02-1.11,.95-1.99,2.06-1.97,1.08,.02,1.94,.89,1.97,1.97,0,.02,0,.03,0,.05h4.73v-.05c0-1.11,.9-2.01,2.01-2.01s2.01,.9,2.01,2.01v.05h1.31c.23,0,.42-.19,.42-.43v-2.91c0-.23-.19-.42-.42-.42ZM4.84,4.27h7.38l-3.77,1.56-3.61-1.56Zm.54,4.24l3.06-1.27,2.93,1.27-2.93,1.42-3.06-1.42Zm.64,4.05l2.43-1.18,2.54,1.18H6.01Z" style="fill:#637193;"/><path d="M4.17,14.93c-.74,0-1.34,.6-1.34,1.34s.6,1.35,1.34,1.35,1.35-.6,1.35-1.35-.6-1.34-1.35-1.34Z" style="fill:#637193;"/><path d="M12.92,14.93c-.74,0-1.35,.6-1.35,1.34s.6,1.35,1.35,1.35,1.34-.6,1.34-1.35-.6-1.34-1.34-1.34Z" style="fill:#637193;"/></svg>