<?xml version="1.0" encoding="UTF-8"?><svg id="a" xmlns="http://www.w3.org/2000/svg" viewBox="0 0 23.37 15.46"><g id="b" transform="translate(0 0)"><path id="c" d="M14.28,8.59L9.83,1.16c-.15-.25-.42-.4-.71-.4H3.58c-.46,0-.83,.37-.83,.83h0V6.8H1.42c-.46,0-.83,.37-.83,.83v5.31c0,.46,.37,.83,.83,.83h.62c0-1.22,.99-2.21,2.21-2.21s2.21,.99,2.21,2.21h2.05c0-1.22,.99-2.21,2.21-2.21,1.22,0,2.21,.99,2.21,2.21h.65c.46,0,.83-.37,.83-.83v-3.93c0-.15-.04-.3-.12-.43m-8.49,.07h-1.23V2.61h3.84l3.62,6.05h-3.13" style="fill:#0076c0;"/><path id="d" d="M5.69,13.77c0,.79-.64,1.43-1.43,1.43-.79,0-1.43-.64-1.43-1.43,0-.79,.64-1.43,1.43-1.43s1.43,.64,1.43,1.43h0" style="fill:#0076c0;"/><path id="e" d="M12.21,13.77c0,.79-.64,1.43-1.43,1.43-.79,0-1.43-.64-1.43-1.43,0-.79,.64-1.43,1.43-1.43s1.43,.64,1.43,1.43h0" style="fill:#0076c0;"/><path id="f" d="M22.13,14.12h-5.65c-.53,0-.96-.43-.96-.96V1.24c0-.53,.43-.96,.96-.96s.96,.43,.96,.96V12.19h4.69c.53,0,.96,.43,.96,.96,0,.53-.43,.96-.96,.96" style="fill:#0076c0;"/><path id="g" d="M22.28,5.63h-3.96c-.12,0-.22-.1-.22-.22V1.46c0-.12,.1-.22,.22-.22h3.96c.12,0,.22,.1,.22,.22v3.95c0,.12-.1,.22-.22,.22" style="fill:#0076c0;"/><path id="h" d="M22.28,11.17h-3.96c-.12,0-.22-.1-.22-.22v-3.95c0-.12,.1-.22,.22-.22h3.96c.12,0,.22,.1,.22,.22v3.95c0,.12-.1,.22-.22,.22" style="fill:#0076c0;"/></g></svg>