<?xml version="1.0" encoding="UTF-8"?><svg id="a" xmlns="http://www.w3.org/2000/svg" viewBox="0 0 21.28 17.93"><g id="b" transform="translate(0 0)"><g id="c" transform="translate(0 0)"><path id="d" d="M13.71,4.68H1.32c-.6,0-1.09-.49-1.09-1.09s.49-1.09,1.09-1.09H13.71c.6,0,1.09,.49,1.09,1.09s-.49,1.09-1.09,1.09" style="fill:#0076c0;"/><path id="e" d="M13.71,11.84H1.32c-.6,0-1.09-.49-1.09-1.09,0-.6,.49-1.09,1.09-1.09H13.71c.6,0,1.09,.49,1.09,1.09,0,.6-.49,1.09-1.09,1.09" style="fill:#0076c0;"/><path id="f" d="M13.71,8.26H5.01c-.6,0-1.09-.49-1.09-1.09s.49-1.09,1.09-1.09H13.71c.6,0,1.09,.49,1.09,1.09s-.49,1.09-1.09,1.09" style="fill:#0076c0;"/><path id="g" d="M13.71,15.43H5.01c-.6,0-1.09-.49-1.09-1.09,0-.6,.49-1.09,1.09-1.09H13.71c.6,0,1.09,.49,1.09,1.09,0,.6-.49,1.09-1.09,1.09" style="fill:#0076c0;"/><path id="h" d="M20.87,10.07l-1.78-1.78c-.34-.34-.89-.34-1.23,0l-1.72,1.72c-.33,.35-.31,.9,.04,1.23,.34,.32,.86,.32,1.2,0l.2-.2v3.51c0,.48,.39,.87,.87,.87,.48,0,.87-.39,.87-.87h0v-3.58l.33,.33c.33,.35,.88,.37,1.23,.04,.35-.33,.37-.88,.04-1.23-.01-.01-.03-.03-.04-.04" style="fill:#0076c0;"/></g></g></svg>