<?xml version="1.0" encoding="utf-8"?>
<!-- Generator: Adobe Illustrator 26.3.1, SVG Export Plug-In . SVG Version: 6.00 Build 0)  -->
<svg version="1.1" id="a" xmlns="http://www.w3.org/2000/svg" xmlns:xlink="http://www.w3.org/1999/xlink" x="0px" y="0px"
	 viewBox="0 0 20.9 13.7" style="enable-background:new 0 0 20.9 13.7;" xml:space="preserve">
<style type="text/css">
	.st0{fill:#0076C0;}
</style>
<g id="b" transform="translate(62 0)">
	<path id="c" class="st0" d="M-47.6,2l-0.5,5.2c0,0.3-0.3,0.6-0.7,0.6c0,0-0.1,0-0.1,0c-0.4,0-0.7-0.4-0.6-0.8l0.7-6.3
		c-0.1-0.3-0.4-0.5-0.7-0.5h-3.8c-0.3,0-0.6,0.2-0.7,0.4l0.7,6.3c0,0.4-0.2,0.7-0.6,0.8c0,0,0,0-0.1,0c-0.4,0-0.6-0.3-0.7-0.6
		L-55.4,2c-2.8,1.7-4.5,4.8-4.4,8.1v0.3h16.7V10C-43.1,6.7-44.8,3.7-47.6,2"/>
	<path id="d" class="st0" d="M-42.4,13.5h-18.2c-0.7-0.1-1.1-0.7-1-1.4c0.1-0.6,0.5-1,1-1.1h18.2c0.7,0.1,1.1,0.7,1,1.4
		C-41.5,13-41.9,13.4-42.4,13.5"/>
</g>
</svg>
